<svg xmlns="http://www.w3.org/2000/svg" xmlns:xlink="http://www.w3.org/1999/xlink" viewBox="0,0,256,256" width="50px" height="50px" fill-rule="nonzero"><g fill="#ffffff" fill-rule="nonzero" stroke="none" stroke-width="1" stroke-linecap="butt" stroke-linejoin="miter" stroke-miterlimit="10" stroke-dasharray="" stroke-dashoffset="0" font-family="none" font-weight="none" font-size="none" text-anchor="none" style="mix-blend-mode: normal"><g transform="scale(5.12,5.12)"><path d="M46,14v22c0,5.514 -4.486,10 -10,10h-22c-5.514,0 -10,-4.486 -10,-10v-22c0,-5.514 4.486,-10 10,-10h22c5.514,0 10,4.486 10,10zM32.5,13c-3.13,0 -5.82,1.92 -6.94,4.65c1.64,0.67 3.06,1.83 4.04,3.35c3.48,0.04 6.46,2.18 7.74,5.22c1.63,-1.37 2.66,-3.43 2.66,-5.72c0,-4.14 -3.36,-7.5 -7.5,-7.5zM29.5,23c-0.357,0 -0.704,0.036 -1.045,0.092c-1.033,-2.406 -3.421,-4.092 -6.205,-4.092c-3.475,0 -6.334,2.627 -6.706,6.002c-0.015,0 -0.029,-0.002 -0.044,-0.002c-3.038,0 -5.5,2.462 -5.5,5.5c0,0.112 0.01,0.222 0.017,0.333c-0.002,0.057 -0.017,0.11 -0.017,0.167c0,2.761 2.239,5 5,5h14v-0.025c0.166,0.012 0.331,0.025 0.5,0.025c3.59,0 6.5,-2.91 6.5,-6.5c0,-3.59 -2.91,-6.5 -6.5,-6.5z"></path></g></g></svg>